210 rock e3127c10 CD database entry follows (until terminating `.')
# xmcd
#
# Track frame offsets:
#	150
#	23475
#	45263
#	56625
#	65213
#	81263
#	96300
#	114000
#	134888
#	155438
#	169369
#	193407
#	201957
#	213207
#	243620
#	300227
#
# Disc length: 4734 seconds
#
# Revision: 3
# Processed by: cddbd v1.5.2PL0 Copyright (c) Steve Scherf et al.
# Submitted via: audiograbber 1.83.01
#
DISCID=e3127c10
DTITLE=Tragic Black / The Decadent Requiem
DYEAR=2006
DGENRE=Punk Rock
TTITLE0=In-Toxic-Nation (The Doom Generation)
TTITLE1=Circuit 3
TTITLE2=Surreal Catharsis
TTITLE3=Suburbian Dystopia
TTITLE4=Incinerate
TTITLE5=Mad Hatter
TTITLE6=The Lost Time
TTITLE7=Fading Echoes
TTITLE8=Faith In Decay
TTITLE9=Elegy
TTITLE10=Smeared Eyes
TTITLE11=The Decadent Requiem (The Awakening)
TTITLE12=Parasitism
TTITLE13=Holding Hands
TTITLE14=Video: Circuit 3, Faith In Decay
TTITLE15=Video: Synthetic Primal
EXTD=
EXTT0=
EXTT1=
EXTT2=
EXTT3=
EXTT4=
EXTT5=
EXTT6=
EXTT7=
EXTT8=
EXTT9=
EXTT10=
EXTT11=
EXTT12=
EXTT13=
EXTT14=
EXTT15=
PLAYORDER=
.
